HIERARCHY
ROOT Hips
{
    OFFSET   0.000000   0.000000   0.000000
    CHANNELS 6 Xposition Yposition Zposition Zrotation Xrotation Yrotation
    JOINT Chest
    {
        OFFSET   0.000000   8.007230   0.000000
        CHANNELS 3 Zrotation Xrotation Yrotation
        JOINT Chest2
        {
            OFFSET   0.000000  22.077100   0.000000
            CHANNELS 3 Zrotation Xrotation Yrotation
            JOINT Neck
            {
                OFFSET   0.000000  23.254800  -0.000021
                CHANNELS 3 Zrotation Xrotation Yrotation
                JOINT Head
                {
                    OFFSET   0.000000  14.370000   1.956610
                    CHANNELS 3 Zrotation Xrotation Yrotation
                    End Site
                    {
                        OFFSET   0.000000  19.566000   0.000000
                    }
                }
            }
            JOINT LeftCollar
            {
                OFFSET   3.911900  19.017000  -0.467063
                CHANNELS 3 Zrotation Xrotation Yrotation
                JOINT LeftShoulder
                {
                    OFFSET  10.383700   0.000000   0.000000
                    CHANNELS 3 Zrotation Xrotation Yrotation
                    JOINT LeftElbow
                    {
                        OFFSET  26.662100   0.001529   0.000325
                        CHANNELS 3 Zrotation Xrotation Yrotation
                        JOINT LeftWrist
                        {
                            OFFSET  28.869000  -0.000011  -0.000096
                            CHANNELS 3 Zrotation Xrotation Yrotation
                            JOINT LeftFinger0
                            {
                                OFFSET   2.044650  -2.323460   3.252850
                                CHANNELS 3 Zrotation Xrotation Yrotation
                                JOINT LeftFinger01
                                {
                                    OFFSET   3.088130   0.000000   0.000000
                                    CHANNELS 3 Zrotation Xrotation Yrotation
                                    JOINT LeftFinger02
                                    {
                                        OFFSET   2.639460   0.000000   0.000000
                                        CHANNELS 3 Zrotation Xrotation Yrotation
                                        End Site
                                        {
                                            OFFSET   2.582190   0.000000   0.000000
                                        }
                                    }
                                }
                            }
                            JOINT LeftFinger1
                            {
                                OFFSET   8.364480   0.000000   3.252850
                                CHANNELS 3 Zrotation Xrotation Yrotation
                                JOINT LeftFinger11
                                {
                                    OFFSET   4.646930   0.000000   0.000000
                                    CHANNELS 3 Zrotation Xrotation Yrotation
                                    JOINT LeftFinger12
                                    {
                                        OFFSET   2.323460   0.000000   0.000000
                                        CHANNELS 3 Zrotation Xrotation Yrotation
                                        End Site
                                        {
                                            OFFSET   2.273050   0.000000   0.000000
                                        }
                                    }
                                }
                            }
                            JOINT LeftFinger2
                            {
                                OFFSET   8.364480   0.000016   1.078090
                                CHANNELS 3 Zrotation Xrotation Yrotation
                                JOINT LeftFinger21
                                {
                                    OFFSET   5.111620   0.000000   0.000000
                                    CHANNELS 3 Zrotation Xrotation Yrotation
                                    JOINT LeftFinger22
                                    {
                                        OFFSET   2.788160   0.000017   0.000000
                                        CHANNELS 3 Zrotation Xrotation Yrotation
                                        End Site
                                        {
                                            OFFSET   2.727660   0.000000   0.000000
                                        }
                                    }
                                }
                            }
                            JOINT LeftFinger3
                            {
                                OFFSET   7.899780   0.000015  -1.078090
                                CHANNELS 3 Zrotation Xrotation Yrotation
                                JOINT LeftFinger31
                                {
                                    OFFSET   4.646920   0.000000   0.000000
                                    CHANNELS 3 Zrotation Xrotation Yrotation
                                    JOINT LeftFinger32
                                    {
                                        OFFSET   2.323470   0.000000   0.000000
                                        CHANNELS 3 Zrotation Xrotation Yrotation
                                        End Site
                                        {
                                            OFFSET   2.273050   0.000000   0.000000
                                        }
                                    }
                                }
                            }
                            JOINT LeftFinger4
                            {
                                OFFSET   7.435090   0.000000  -3.252850
                                CHANNELS 3 Zrotation Xrotation Yrotation
                                JOINT LeftFinger41
                                {
                                    OFFSET   3.717550   0.000000   0.000000
                                    CHANNELS 3 Zrotation Xrotation Yrotation
                                    JOINT LeftFinger42
                                    {
                                        OFFSET   1.858760   0.000000   0.000000
                                        CHANNELS 3 Zrotation Xrotation Yrotation
                                        End Site
                                        {
                                            OFFSET   1.818440   0.000000   0.000000
                                        }
                                    }
                                }
                            }
                        }
                    }
                }
            }
            JOINT RightCollar
            {
                OFFSET  -3.911900  19.017000  -0.467062
                CHANNELS 3 Zrotation Xrotation Yrotation
                JOINT RightShoulder
                {
                    OFFSET -10.383700   0.000015   0.000000
                    CHANNELS 3 Zrotation Xrotation Yrotation
                    JOINT RightElbow
                    {
                        OFFSET -26.662100   0.001341   0.000385
                        CHANNELS 3 Zrotation Xrotation Yrotation
                        JOINT RightWrist
                        {
                            OFFSET -28.869000   0.000025  -0.000080
                            CHANNELS 3 Zrotation Xrotation Yrotation
                            JOINT RightFinger0
                            {
                                OFFSET  -2.044650  -2.323490   3.252850
                                CHANNELS 3 Zrotation Xrotation Yrotation
                                JOINT RightFinger01
                                {
                                    OFFSET  -3.088130   0.000000   0.000000
                                    CHANNELS 3 Zrotation Xrotation Yrotation
                                    JOINT RightFinger02
                                    {
                                        OFFSET  -2.639460   0.000000   0.000000
                                        CHANNELS 3 Zrotation Xrotation Yrotation
                                        End Site
                                        {
                                            OFFSET  -2.582190   0.000000   0.000000
                                        }
                                    }
                                }
                            }
                            JOINT RightFinger1
                            {
                                OFFSET  -8.364480   0.000000   3.252850
                                CHANNELS 3 Zrotation Xrotation Yrotation
                                JOINT RightFinger11
                                {
                                    OFFSET  -4.646930   0.000000   0.000000
                                    CHANNELS 3 Zrotation Xrotation Yrotation
                                    JOINT RightFinger12
                                    {
                                        OFFSET  -2.323470   0.000000   0.000000
                                        CHANNELS 3 Zrotation Xrotation Yrotation
                                        End Site
                                        {
                                            OFFSET  -2.273050   0.000000   0.000000
                                        }
                                    }
                                }
                            }
                            JOINT RightFinger2
                            {
                                OFFSET  -8.364480   0.000000   1.078090
                                CHANNELS 3 Zrotation Xrotation Yrotation
                                JOINT RightFinger21
                                {
                                    OFFSET  -5.111610   0.000000   0.000000
                                    CHANNELS 3 Zrotation Xrotation Yrotation
                                    JOINT RightFinger22
                                    {
                                        OFFSET  -2.788160   0.000000   0.000000
                                        CHANNELS 3 Zrotation Xrotation Yrotation
                                        End Site
                                        {
                                            OFFSET  -2.727660   0.000000   0.000000
                                        }
                                    }
                                }
                            }
                            JOINT RightFinger3
                            {
                                OFFSET  -7.899780   0.000000  -1.078090
                                CHANNELS 3 Zrotation Xrotation Yrotation
                                JOINT RightFinger31
                                {
                                    OFFSET  -4.646920   0.000000   0.000000
                                    CHANNELS 3 Zrotation Xrotation Yrotation
                                    JOINT RightFinger32
                                    {
                                        OFFSET  -2.323470   0.000000   0.000000
                                        CHANNELS 3 Zrotation Xrotation Yrotation
                                        End Site
                                        {
                                            OFFSET  -2.273050   0.000000   0.000000
                                        }
                                    }
                                }
                            }
                            JOINT RightFinger4
                            {
                                OFFSET  -7.435090   0.000000  -3.252850
                                CHANNELS 3 Zrotation Xrotation Yrotation
                                JOINT RightFinger41
                                {
                                    OFFSET  -3.717550   0.000000   0.000000
                                    CHANNELS 3 Zrotation Xrotation Yrotation
                                    JOINT RightFinger42
                                    {
                                        OFFSET  -1.858770   0.000000   0.000000
                                        CHANNELS 3 Zrotation Xrotation Yrotation
                                        End Site
                                        {
                                            OFFSET  -1.818440   0.000000   0.000000
                                        }
                                    }
                                }
                            }
                        }
                    }
                }
            }
        }
    }
    JOINT LeftHip
    {
        OFFSET   9.783010   0.000000   0.000000
        CHANNELS 3 Zrotation Xrotation Yrotation
        JOINT LeftKnee
        {
            OFFSET   0.000070 -41.789100   0.000028
            CHANNELS 3 Zrotation Xrotation Yrotation
            JOINT LeftAnkle
            {
                OFFSET   0.000087 -41.133200  -0.000100
                CHANNELS 3 Zrotation Xrotation Yrotation
                JOINT LeftToe
                {
                    OFFSET   0.000000  -6.358960  14.674500
                    CHANNELS 3 Zrotation Xrotation Yrotation
                    End Site
                    {
                        OFFSET   0.000000   0.000000   3.913200
                    }
                }
            }
        }
    }
    JOINT RightHip
    {
        OFFSET  -9.783020   0.000000   0.000000
        CHANNELS 3 Zrotation Xrotation Yrotation
        JOINT RightKnee
        {
            OFFSET   0.000044 -41.789100  -0.000870
            CHANNELS 3 Zrotation Xrotation Yrotation
            JOINT RightAnkle
            {
                OFFSET  -0.000090 -41.133200  -0.000245
                CHANNELS 3 Zrotation Xrotation Yrotation
                JOINT RightToe
                {
                    OFFSET   0.000000  -6.358960  14.674500
                    CHANNELS 3 Zrotation Xrotation Yrotation
                    End Site
                    {
                        OFFSET   0.000000   0.000000   3.913200
                    }
                }
            }
        }
    }
}
MOTION
Frames: 6
Frame Time:   0.016667
  3.687840  89.387200  -0.952664  -0.761341 -12.892700   0.565172  -0.686756   7.916500   1.637300  -1.627790  15.809200   3.421010   1.283060 -12.189300   0.270897   2.394280 -24.679200   3.457530   0.409487  -3.461020   2.651610 -43.529500 -16.181300 -65.770600   2.245150 -20.808000 -102.168000  18.950700  12.357700 -35.681800  59.047400  54.333300 -108.293000   9.519310   0.002520  -0.000122   9.759640   0.001826   0.000853 -18.200600  -2.304180   6.972020 -15.006400   0.001267   0.004635 -10.504500  -0.004510   0.004829 -21.592200  -3.641860   9.118310 -21.882800  -0.000731   0.008486 -14.574000  -0.003036   0.005242 -17.557200  -2.986620   9.351710 -17.801600   0.003690   0.008216 -11.855900  -0.005476   0.006490 -14.888100  -3.938160  14.485100 -23.083200   0.001812   0.001204 -15.373400  -0.003922   0.008924  -1.403230  -2.837030   6.405260  40.059600 -26.141000  62.604500 -19.293600 -17.139300  89.595400 -23.917000   5.815630  40.478000 -59.040400  54.333300 108.293000 -16.414200   0.001386  -0.001701 -13.207100   0.000686  -0.001005   6.182040   0.082503   0.766135   5.058170   0.000158  -0.000519   3.540700   0.000594  -0.000424  13.419800  -0.613343  -2.575890  13.433300   0.000384  -0.000239   8.946580   0.010303  -0.001513  18.083700  -2.595070  -7.891410  18.262000   0.000850   0.000103  12.162500   0.004721  -0.001483  14.618600  -2.110430  -8.033180  22.149100   0.003426  -0.004131  14.751400   0.003335  -0.003772   0.837117  13.529800  -1.307190  -0.095617   1.177120   8.615060  -2.108070  -2.262900  -0.163053   0.000000   0.000000   0.000000  -1.140620  10.181300  -6.035400  -2.073220  10.377600 -13.848400   3.450130  -5.865590  -0.053025   0.000000   0.000000   0.000000
  3.679210  89.387600  -0.917155  -0.652263 -12.886500   1.166790  -0.691546   7.940420   1.726760  -1.651170  15.854600   3.603840   1.271700 -12.130800   0.266038   2.370860 -24.561300   3.523520   0.336214  -3.551400   2.794820 -43.590300 -16.170300 -65.766100   2.114330 -20.716000 -102.297000  18.955000  12.257000 -35.678500  59.031500  54.327900 -108.278000   9.530690   0.002572  -0.000113   9.765340   0.001785   0.000892 -18.264000  -2.300210   6.935150 -15.058200   0.001286   0.004734 -10.540700  -0.004546   0.004936 -21.695400  -3.652980   9.109620 -21.984000  -0.000737   0.008506 -14.641300  -0.003019   0.005168 -17.658700  -2.998230   9.344070 -17.904100   0.003768   0.008350 -11.924100  -0.005521   0.006607 -14.966700  -3.958260  14.483600 -23.205100   0.001830   0.001208 -15.454500  -0.003945   0.009006  -1.441150  -2.919920   6.555430  40.196300 -25.979900  62.744400 -19.250200 -17.076800  89.571600 -23.838100   5.654080  40.505400 -59.040400  54.333300 108.293000 -16.413500   0.001398  -0.001740 -13.208700   0.000716  -0.000981   6.278080   0.088965   0.812454   5.136830   0.000191  -0.000598   3.595760   0.000664  -0.000482  13.519100  -0.611746  -2.552840  13.532400   0.000474  -0.000370   9.012570   0.010461  -0.001487  18.256800  -2.607760  -7.845840  18.434800   0.000857  -0.000054  12.277600   0.004796  -0.001450  14.739300  -2.117580  -7.989450  22.329600   0.003459  -0.004208  14.871600   0.003312  -0.003754   0.882510  13.524500  -1.296810  -0.065979   1.117310   8.404280  -2.149450  -2.214280  -0.546582   0.000000   0.000000  -0.000000  -1.116310  10.297200  -6.051990  -1.982890  10.334100 -14.120700   3.423400  -5.928020  -0.358503  -0.000000   0.000000   0.000000
  3.677350  89.388000  -0.879108  -0.548866 -12.871900   1.757510  -0.692182   7.958270   1.811900  -1.665390  15.889600   3.777210   1.260550 -12.069600   0.261458   2.346990 -24.438100   3.553890   0.265618  -3.638310   2.877300 -43.608800 -16.148200 -65.752300   2.045200 -20.652000 -102.403000  18.969600  12.139200 -35.678500  59.015200  54.322400 -108.262000   9.536920   0.002627  -0.000104   9.768460   0.001747   0.000932 -18.317300  -2.293020   6.891830 -15.100000   0.001306   0.004836 -10.570000  -0.004579   0.005042 -21.771900  -3.664200   9.091260 -22.063400  -0.000741   0.008522 -14.694200  -0.003006   0.005093 -17.731300  -3.009930   9.326590 -17.977000   0.003846   0.008486 -11.972700  -0.005566   0.006723 -15.025600  -3.972320  14.471200 -23.295100   0.001846   0.001215 -15.514500  -0.003966   0.009089  -1.451910  -2.979880   6.639920  40.332300 -25.838200  62.847600 -19.215100 -16.973100  89.531400 -23.802000   5.470720  40.541500 -59.040400  54.333300 108.293000 -16.412200   0.001412  -0.001777 -13.209600   0.000744  -0.000960   6.389280   0.095491   0.855800   5.227930   0.000227  -0.000679   3.659540   0.000734  -0.000541  13.647700  -0.610772  -2.524740  13.660800   0.000562  -0.000507   9.098120   0.010621  -0.001460  18.473200  -2.616170  -7.776410  18.650000   0.000870  -0.000211  12.420900   0.004867  -0.001421  14.892700  -2.122470  -7.923780  22.558200   0.003493  -0.004284  15.023800   0.003288  -0.003736   0.930376  13.514200  -1.292010  -0.038408   1.058240   8.213460  -2.198440  -2.165970  -0.932106  -0.000000   0.000000   0.000000  -1.086210  10.405200  -6.076300  -1.905700  10.281900 -14.380300   3.399190  -5.977480  -0.655123   0.000000   0.000000   0.000000
  3.678700  89.388300  -0.841743  -0.456689 -12.837200   2.325790  -0.688996   7.963190   1.912090  -1.673540  15.898900   3.980270   1.247210 -12.001200   0.258376   2.320450 -24.300300   3.558730   0.211403  -3.691730   2.868020 -43.572000 -16.116300 -65.730300   2.093990 -20.669600 -102.452000  19.018700  12.014300 -35.691400  59.175900  54.391200 -108.460000   9.529890   0.002681  -0.000095   9.764950   0.001720   0.000977 -18.299100  -2.270530   6.831980 -15.082500   0.001337   0.004936 -10.557800  -0.004605   0.005150 -21.783100  -3.640440   9.018650 -22.069900  -0.000747   0.008539 -14.698600  -0.002991   0.005013 -17.726100  -2.988100   9.253340 -17.967700   0.003933   0.008618 -11.966500  -0.005617   0.006844 -15.008300  -3.955580  14.424000 -23.263000   0.001860   0.001228 -15.493100  -0.003992   0.009176  -1.443790  -2.994290   6.671890  40.452300 -25.738700  62.898500 -19.263400 -16.893800  89.503200 -23.809200   5.301990  40.595800 -59.040400  54.333300 108.293000 -16.410200   0.001438  -0.001811 -13.210800   0.000760  -0.000944   6.503120   0.103183   0.903390   5.321300   0.000251  -0.000765   3.724900   0.000800  -0.000605  13.800400  -0.609733  -2.479550  13.813400   0.000652  -0.000651   9.199720   0.010790  -0.001431  18.734100  -2.615060  -7.657520  18.908500   0.000882  -0.000374  12.593100   0.004937  -0.001394  15.070200  -2.122350  -7.826430  22.821500   0.003532  -0.004356  15.199100   0.003261  -0.003716   0.989844  13.474300  -1.299810  -0.019972   1.009060   8.059220  -2.260540  -2.116280  -1.318670  -0.000000   0.000000  -0.000000  -1.041040  10.479600  -6.107260  -1.856090  10.226400 -14.606100   3.371080  -6.006560  -0.954385   0.000000   0.000000   0.000000
  3.683040  89.388800  -0.803494  -0.373663 -12.790100   2.859510  -0.682547   7.963510   2.007800  -1.674160  15.897100   4.173590   1.238960 -11.925300   0.255993   2.299580 -24.147300   3.563140   0.149765  -3.726120   2.858680 -43.513900 -16.086200 -65.709500   2.157890 -20.720600 -102.491000  19.073100  11.858200 -35.703400  59.337400  54.459500 -108.659000   9.480630   0.002739  -0.000079   9.740320   0.001695   0.001018 -18.269900  -2.254260   6.794340 -15.057600   0.001368   0.005036 -10.540300  -0.004630   0.005255 -21.793100  -3.616470   8.965150 -22.076500  -0.000750   0.008556 -14.703000  -0.002975   0.004933 -17.719900  -2.966090   9.199080 -17.958300   0.004021   0.008750 -11.960200  -0.005667   0.006965 -14.990200  -3.938630  14.387700 -23.230900   0.001871   0.001245 -15.471700  -0.004017   0.009263  -1.428910  -2.996340   6.676450  40.588400 -25.622900  62.976200 -19.359800 -16.809600  89.463000 -23.852400   5.135010  40.665300 -59.040400  54.333300 108.293000 -16.408900   0.001462  -0.001843 -13.211800   0.000778  -0.000929   6.603320   0.107722   0.930441   5.403480   0.000276  -0.000852   3.782440   0.000866  -0.000670  13.954900  -0.609210  -2.450080  13.968000   0.000747  -0.000795   9.302690   0.010962  -0.001406  19.009000  -2.613920  -7.540750  19.181000   0.000893  -0.000539  12.774600   0.005007  -0.001370  15.272600  -2.118620  -7.706780  23.122100   0.003575  -0.004427  15.399300   0.003233  -0.003700   1.053500  13.427200  -1.307570  -0.007254   0.955834   7.939650  -2.328710  -2.068150  -1.703720  -0.000000   0.000000   0.000000  -0.992295  10.545600  -6.142030  -1.813240  10.158300 -14.814100   3.342780  -6.026940  -1.234230  -0.000000   0.000000  -0.000000
  3.690680  89.390200  -0.763515  -0.299100 -12.732500   3.343930  -0.673530   7.957110   2.079810  -1.665920  15.883500   4.318260   1.244780 -11.840800   0.253993   2.306140 -23.976100   3.636250   0.051845  -3.741690   2.897710 -43.431800 -16.045700 -65.746200   2.233920 -20.766200 -102.507000  19.116800  11.653400 -35.710500  59.078000  54.350100 -108.338000   9.137230   0.002805  -0.000033   9.568620   0.001662   0.001039 -18.257500  -2.259230   6.812300 -15.048000   0.001388   0.005137 -10.533600  -0.004662   0.005357 -21.815800  -3.625010   8.976580 -22.103100  -0.000748   0.008573 -14.720700  -0.002954   0.004858 -17.755500  -2.976260   9.210280 -17.995000   0.004106   0.008884 -11.984600  -0.005708   0.007084 -14.998900  -3.951310  14.423300 -23.248200   0.001877   0.001268 -15.483200  -0.004035   0.009343  -1.407100  -2.986070   6.592710  40.775900 -25.401800  63.204400 -19.541100 -16.708300  89.368300 -23.938200   4.961490  40.761200 -59.040400  54.333300 108.293000 -16.414300   0.001472  -0.001878 -13.212500   0.000808  -0.000910   6.651990   0.107018   0.917700   5.443370   0.000308  -0.000941   3.810360   0.000936  -0.000734  14.076400  -0.613292  -2.452220  14.089700   0.000858  -0.000933   9.383760   0.011136  -0.001391  19.263900  -2.623620  -7.470880  19.435300   0.000901  -0.000708  12.943900   0.005079  -0.001347  15.483600  -2.105010  -7.531330  23.438500   0.003628  -0.004502  15.610100   0.003203  -0.003691   1.119090  13.393800  -1.303990  -0.006719   0.882310   7.867210  -2.399160  -2.024520  -2.095210   0.000000   0.000000   0.000000  -0.948730  10.623800  -6.180090  -1.756830  10.065400 -15.015200   3.303620  -6.050290  -1.474150  -0.000000   0.000000   0.000000
